# xmcd CD database file
#
# Track frame offsets:
#	150
#	20816
#	42796
#	68564
#	92124
#	112029
#	136599
#	161728
#	184446
#
# Disc length: 2832 seconds
#
# Revision: 0
# Processed by: cddbd v1.5.2PL0 Copyright (c) Steve Scherf et al.
# Submitted via: CDex 1.51
#
DISCID=780b0e09
DTITLE=Orodruin - Ruins of Eternity
DYEAR=2019
DGENRE=Doom Metal
TTITLE0=Forsaken
TTITLE1=Man of Peace
TTITLE2=Grave Illusion
TTITLE3=Letter of Life's Regret
TTITLE4=War on the World
TTITLE5=Into the Light of the Sun
TTITLE6=Voice in the Dark
TTITLE7=Hell Frozen Over
TTITLE8=Ruins of Eternity
EXTD=YEAR: 2019
EXTT0=
EXTT1=
EXTT2=
EXTT3=
EXTT4=
EXTT5=
EXTT6=
EXTT7=
EXTT8=
PLAYORDER=
